<!DOCTYPE svg PUBLIC "-//W3C//DTD SVG 1.1//EN" "http://www.w3.org/Graphics/SVG/1.1/DTD/svg11.dtd">

<!-- Uploaded to: SVG Repo, www.svgrepo.com, Transformed by: SVG Repo Mixer Tools -->
<svg fill="#F2F2F0" width="200px" height="200px" viewBox="-9.6 -9.6 83.20 83.20" version="1.1" xmlns="http://www.w3.org/2000/svg" xmlns:xlink="http://www.w3.org/1999/xlink" xml:space="preserve" xmlns:serif="http://www.serif.com/" style="fill-rule:evenodd;clip-rule:evenodd;stroke-linejoin:round;stroke-miterlimit:2;" stroke="#F2F2F0" stroke-width="0.00064">

<g id="SVGRepo_bgCarrier" stroke-width="0">

<path transform="translate(-9.6, -9.6), scale(5.2)" fill="#8C6B42" d="M9.166.33a2.25 2.25 0 00-2.332 0l-5.25 3.182A2.25 2.25 0 00.5 5.436v5.128a2.25 2.25 0 001.084 1.924l5.25 3.182a2.25 2.25 0 002.332 0l5.25-3.182a2.25 2.25 0 001.084-1.924V5.436a2.25 2.25 0 00-1.084-1.924L9.166.33z" strokewidth="0"/>

</g>

<g id="SVGRepo_tracerCarrier" stroke-linecap="round" stroke-linejoin="round"/>

<g id="SVGRepo_iconCarrier"> <rect id="Icons" x="-192" y="-64" width="1280" height="800" style="fill:none;"/> <g id="Icons1" serif:id="Icons"> <g id="Strike"> </g> <g id="H1"> </g> <g id="H2"> </g> <g id="H3"> </g> <g id="list-ul"> </g> <g id="hamburger-1"> </g> <g id="hamburger-2"> </g> <g id="list-ol"> </g> <g id="list-task"> </g> <g id="trash"> </g> <g id="vertical-menu"> </g> <g id="horizontal-menu"> <path d="M56.086,31.96c0,2.207 -1.793,4 -4,4c-2.208,0 -4,-1.793 -4,-4c0,-2.208 1.792,-4 4,-4c2.207,0 4,1.792 4,4Z"/> <path d="M16.086,31.96c0,2.207 -1.793,4 -4,4c-2.208,0 -4,-1.793 -4,-4c0,-2.208 1.792,-4 4,-4c2.207,0 4,1.792 4,4Z"/> <path d="M36.086,31.96c0,2.207 -1.793,4 -4,4c-2.208,0 -4,-1.793 -4,-4c0,-2.208 1.792,-4 4,-4c2.207,0 4,1.792 4,4Z"/> </g> <g id="sidebar-2"> </g> <g id="Pen"> </g> <g id="Pen1" serif:id="Pen"> </g> <g id="clock"> </g> <g id="external-link"> </g> <g id="hr"> </g> <g id="info"> </g> <g id="warning"> </g> <g id="plus-circle"> </g> <g id="minus-circle"> </g> <path id="caret-down" d="M32.149,109.79l-24.071,-24.071l3.009,-3.009l21.062,21.062l21.061,-21.062l3.009,3.009l-24.07,24.071Z" style="fill-rule:nonzero;"/> <g id="vue"> </g> <g id="cog"> </g> <g id="logo"> </g> <g id="radio-check"> </g> <g id="eye-slash"> </g> <g id="eye"> </g> <g id="toggle-off"> </g> <g id="shredder"> </g> <g id="spinner--loading--dots-" serif:id="spinner [loading, dots]"> </g> <g id="react"> </g> <g id="check-selected"> </g> <g id="turn-off"> </g> <g id="code-block"> </g> <g id="user"> </g> <g id="coffee-bean"> </g> <g id="coffee-beans"> <g id="coffee-bean1" serif:id="coffee-bean"> </g> </g> <g id="coffee-bean-filled"> </g> <g id="coffee-beans-filled"> <g id="coffee-bean2" serif:id="coffee-bean"> </g> </g> <g id="clipboard"> </g> <g id="clipboard-paste"> </g> <g id="clipboard-copy"> </g> <g id="Layer1"> </g> </g> </g>

</svg>